<svg xmlns="http://www.w3.org/2000/svg" xmlns:xlink="http://www.w3.org/1999/xlink" version="1.1" id="Layer_1" x="0px" y="0px" viewBox="0 0 627.33 288.67" style="enable-background:new 0 0 627.33 288.67;" xml:space="preserve">
<style type="text/css">
	.st0{fill:url(#SVGID_1_);}
	.st1{fill:url(#SVGID_2_);}
	.st2{fill:url(#SVGID_3_);}
	.st3{fill:url(#SVGID_4_);}
	.st4{fill:url(#SVGID_5_);}
	.st5{fill:url(#SVGID_6_);}
	.st6{fill:url(#SVGID_7_);}
	.st7{fill:url(#SVGID_8_);}
	.st8{fill:url(#SVGID_9_);}
	.st9{fill:url(#SVGID_10_);}
	.st10{fill:url(#SVGID_11_);}
	.st11{fill:url(#SVGID_12_);}
	.st12{fill:url(#SVGID_13_);}
	.st13{fill:url(#SVGID_14_);}
	.st14{fill:url(#SVGID_15_);}
	.st15{fill:url(#SVGID_16_);}
	.st16{fill:url(#SVGID_17_);}
	.st17{fill:url(#SVGID_18_);}
	.st18{fill:url(#SVGID_19_);}
	.st19{fill:url(#SVGID_20_);}
	.st20{fill:url(#SVGID_21_);}
	.st21{fill:url(#SVGID_22_);}
	.st22{fill:url(#SVGID_23_);}
	.st23{fill:url(#SVGID_24_);}
	.st24{fill:url(#SVGID_25_);}
	.st25{fill:url(#SVGID_26_);}
	.st26{fill:url(#SVGID_27_);}
	.st27{fill:url(#SVGID_28_);}
	.st28{fill:url(#SVGID_29_);}
	.st29{fill:url(#SVGID_30_);}
	.st30{fill:url(#SVGID_31_);}
	.st31{fill:url(#SVGID_32_);}
	.st32{fill:url(#SVGID_33_);}
	.st33{fill:url(#SVGID_34_);}
	.st34{fill:url(#SVGID_35_);}
	.st35{fill:url(#SVGID_36_);}
	.st36{fill:url(#SVGID_37_);}
	.st37{fill:url(#SVGID_38_);}
	.st38{fill:url(#SVGID_39_);}
	.st39{fill:url(#SVGID_40_);}
	.st40{fill:url(#SVGID_41_);}
	.st41{fill:url(#SVGID_42_);}
	.st42{fill:url(#SVGID_43_);}
	.st43{fill:url(#SVGID_44_);}
	.st44{fill:url(#SVGID_45_);}
	.st45{fill:url(#SVGID_46_);}
	.st46{fill:url(#SVGID_47_);}
	.st47{fill:url(#SVGID_48_);}
	.st48{fill:url(#SVGID_49_);}
	.st49{fill:url(#SVGID_50_);}
	.st50{fill:url(#SVGID_51_);}
	.st51{fill:url(#SVGID_52_);}
	.st52{fill:url(#SVGID_53_);}
	.st53{fill:url(#SVGID_54_);}
	.st54{fill:url(#SVGID_55_);}
	.st55{fill:url(#SVGID_56_);}
	.st56{fill:url(#SVGID_57_);}
	.st57{fill:url(#SVGID_58_);}
	.st58{fill:url(#SVGID_59_);}
	.st59{fill:url(#SVGID_60_);}
	.st60{fill:url(#SVGID_61_);}
	.st61{fill:url(#SVGID_62_);}
	.st62{fill:url(#SVGID_63_);}
	.st63{fill:url(#SVGID_64_);}
	.st64{fill:url(#SVGID_65_);}
	.st65{fill:url(#SVGID_66_);}
	.st66{fill:url(#SVGID_67_);}
	.st67{fill:url(#SVGID_68_);}
	.st68{fill:url(#SVGID_69_);}
	.st69{fill:url(#SVGID_70_);}
	.st70{fill:#DC7B4B;}
	.st71{fill:#8D8E90;}
</style>
	<g>
	<path class="st70" d="M189.03,68.38c38.58,26.76,50.68,78.36,28.01,119.48c-1.05,2.36-3.67,3.61-6.16,2.93   c-2.8-0.76-4.45-3.64-3.69-6.43c4.05-17.18,2.71-35.2-3.86-51.59c8.06-8.86,7.42-22.58-1.44-30.65   c-5.44-4.95-13.01-6.81-20.12-4.94c-12.43-6.98-26.74-9.86-40.9-8.21c-2.67,0.24-5.13-1.48-5.83-4.07c-0.8-2.95,0.95-5.99,3.9-6.79   c12.32-2.97,25.17-3,37.51-0.09c5.34,1.36,10.8-1.82,12.25-7.15C188.9,70.05,189.02,69.22,189.03,68.38z"/>
		<path class="st70" d="M187.28,100.23c9.9,0,17.92,8.03,17.92,17.93s-8.03,17.92-17.92,17.92c-9.9,0-17.93-8.02-17.93-17.92   S177.38,100.23,187.28,100.23z"/>
</g>
	<g>
	<path class="st71" d="M209.6,195.48c0.81,0.22,1.65,0.34,2.49,0.35c-26.76,38.58-78.36,50.68-119.48,28.01   c-2.36-1.05-3.61-3.67-2.93-6.17c0.76-2.79,3.64-4.44,6.43-3.69c17.18,4.05,35.2,2.7,51.59-3.86c8.86,8.06,22.58,7.42,30.65-1.44   c4.95-5.44,6.81-13.01,4.94-20.12c6.98-12.43,9.85-26.75,8.21-40.91c-0.23-2.67,1.48-5.13,4.07-5.83c2.95-0.8,6,0.95,6.79,3.9   c2.95,12.27,3,25.06,0.12,37.35c-0.01,0.05-0.03,0.1-0.04,0.16C201.09,188.57,204.26,194.04,209.6,195.48z"/>
		<path class="st71" d="M162.31,176.16c9.9,0,17.93,8.02,17.93,17.92s-8.03,17.93-17.93,17.93c-9.9,0-17.92-8.03-17.92-17.93   S152.41,176.16,162.31,176.16z"/>
</g>
	<g>
	<path class="st71" d="M181.05,63.42c2.37,1.05,3.61,3.67,2.93,6.17c-0.76,2.79-3.64,4.44-6.43,3.69   c-17.19-4.05-35.2-2.7-51.59,3.86c-8.86-8.07-22.59-7.43-30.65,1.43c-4.95,5.44-6.81,13.01-4.94,20.12   c-6.98,12.43-9.86,26.75-8.21,40.91c0.24,2.67-1.48,5.13-4.07,5.83c-2.95,0.8-5.99-0.95-6.79-3.9c-2.97-12.32-2.99-25.17-0.09-37.5   c1.36-5.34-1.81-10.8-7.15-12.25c-0.82-0.22-1.65-0.34-2.49-0.35C88.33,52.85,139.94,40.75,181.05,63.42z"/>
		<path class="st71" d="M111.35,75.26c9.9,0,17.93,8.03,17.93,17.93s-8.03,17.92-17.93,17.92s-17.92-8.02-17.92-17.92   S101.45,75.26,111.35,75.26z"/>
</g>
	<g>
	<path class="st70" d="M138.63,202.37c0.8,2.95-0.95,5.99-3.9,6.79c-12.32,2.97-25.16,3-37.5,0.09c-5.34-1.36-10.8,1.82-12.25,7.15   c-0.22,0.81-0.34,1.65-0.35,2.49c-38.58-26.76-50.67-78.36-28-119.48c1.05-2.36,3.67-3.61,6.16-2.93c2.79,0.76,4.45,3.64,3.69,6.43   c-4.05,17.18-2.7,35.2,3.86,51.59c-8.07,8.86-7.42,22.58,1.44,30.65c5.44,4.95,13.01,6.81,20.12,4.94   c12.43,6.98,26.75,9.86,40.91,8.21C135.48,198.07,137.94,199.78,138.63,202.37z"/>
		<path class="st70" d="M86.38,151.18c9.9,0,17.93,8.02,17.93,17.92c0,9.9-8.03,17.93-17.93,17.93s-17.92-8.03-17.92-17.93   C68.46,159.21,76.48,151.18,86.38,151.18z"/>
</g>
	<g>
	<g>
		<path class="st70" d="M261.79,108.73v18.9c0,3.14-1.11,4.7-3.32,4.7s-3.32-1.57-3.32-4.71v-20.06c0-3.14,1.52-4.71,4.55-4.71    h16.37c3.04,0,4.55,1.57,4.55,4.71v20.06c0,3.14-1.11,4.71-3.32,4.71c-2.21,0-3.32-1.57-3.32-4.7v-18.9H261.79z"/>
		<path class="st70" d="M289.15,132.34c-2.21,0-3.32-1.57-3.32-4.71v-20.1c0-1.73,0.33-2.94,1-3.63c0.67-0.69,1.86-1.04,3.59-1.04    h5.99c3.22,0,5.78,0.84,7.67,2.52c2,1.76,3,4.22,3,7.39c0,3.14-0.91,5.58-2.72,7.31c-1.81,1.73-4.29,2.6-7.43,2.6h-4.47v4.97    C292.47,130.77,291.36,132.34,289.15,132.34z M292.47,116.64h2.88c3.03,0,4.55-1.29,4.55-3.87c0-2.53-1.52-3.79-4.55-3.79h-2.88    V116.64z"/>
		<path class="st70" d="M309.28,117.46c0-4.36,1.22-7.91,3.67-10.65c2.53-2.87,5.95-4.31,10.26-4.31c4.34,0,7.77,1.42,10.3,4.27    c2.45,2.74,3.67,6.3,3.67,10.69c0,4.36-1.22,7.91-3.67,10.65c-2.55,2.82-5.99,4.23-10.3,4.23s-7.74-1.42-10.26-4.27    C310.5,125.36,309.28,121.82,309.28,117.46z M316.31,117.54c0,2.39,0.55,4.37,1.64,5.94c1.22,1.84,2.98,2.75,5.27,2.75    s4.06-0.9,5.31-2.71c1.09-1.59,1.64-3.59,1.64-5.98c0-2.47-0.52-4.5-1.56-6.1c-1.25-1.89-3.05-2.83-5.39-2.83    s-4.13,0.94-5.35,2.83C316.83,113.04,316.31,115.07,316.31,117.54z"/>
		<path class="st70" d="M353.77,132.74c-4.39,0-7.89-1.46-10.5-4.39c-2.5-2.8-3.75-6.42-3.75-10.86c0-4.34,1.29-7.96,3.87-10.86    c2.66-3.01,6.15-4.51,10.46-4.51c1.54,0,3.01,0.21,4.39,0.64c1.73,0.53,2.97,1.29,3.72,2.28c0.42,0.56,0.64,1.13,0.64,1.72    c0,0.77-0.28,1.46-0.84,2.06c-0.56,0.6-1.22,0.9-2,0.9c-0.72,0-1.58-0.2-2.6-0.6s-2.1-0.6-3.28-0.6c-2.4,0-4.23,0.96-5.51,2.88    c-1.12,1.65-1.68,3.74-1.68,6.27c0,2.48,0.6,4.5,1.8,6.07c1.3,1.76,3.17,2.64,5.59,2.64c1.06,0,2.25-0.24,3.55-0.72    s2.18-0.72,2.63-0.72c0.75,0,1.38,0.3,1.9,0.9c0.52,0.6,0.78,1.27,0.78,2.02c0,0.64-0.21,1.25-0.64,1.84    C360.82,131.71,357.97,132.74,353.77,132.74z"/>
		<path class="st70" d="M370.46,109.05c-2.4,0-3.89-0.07-4.47-0.2c-1.78-0.37-2.68-1.33-2.68-2.88c0-2.08,1.57-3.11,4.71-3.11h11.54    c3.14,0,4.71,1.04,4.71,3.11c0,1.54-0.89,2.5-2.68,2.88c-0.59,0.13-2.08,0.2-4.47,0.2v18.58c0,3.14-1.11,4.7-3.32,4.7    c-2.24,0-3.36-1.57-3.36-4.7V109.05z"/>
		<path class="st70" d="M389.71,132.34c-2.21,0-3.32-1.57-3.32-4.71v-20.1c0-1.73,0.33-2.94,1-3.63c0.67-0.69,1.86-1.04,3.59-1.04    h5.99c3.22,0,5.78,0.84,7.67,2.52c2,1.76,3,4.22,3,7.39c0,3.14-0.91,5.58-2.72,7.31c-1.81,1.73-4.29,2.6-7.43,2.6h-4.47v4.97    C393.03,130.77,391.92,132.34,389.71,132.34z M393.03,116.64h2.88c3.03,0,4.55-1.29,4.55-3.87c0-2.53-1.52-3.79-4.55-3.79h-2.88    V116.64z"/>
		<path class="st70" d="M419.39,102.46c2.37,0,4.01,1.28,4.91,3.83l7.35,20.94c0.32,0.91,0.48,1.6,0.48,2.07    c0,0.91-0.32,1.64-0.96,2.19c-0.64,0.56-1.41,0.84-2.32,0.84c-1.68,0-2.85-1.04-3.51-3.14l-1.08-3.41h-10.3l-1.2,3.65    c-0.64,1.93-1.71,2.9-3.2,2.9c-0.93,0-1.69-0.28-2.28-0.86c-0.59-0.57-0.88-1.32-0.88-2.25c0-0.69,0.11-1.33,0.32-1.92l7.59-20.54    C415.38,103.9,417.07,102.46,419.39,102.46z M419.18,109.69l-3.31,10.22h6.59l-3.2-10.22H419.18z"/>
		<path class="st70" d="M441.27,120.2v7.43c0,3.14-1.11,4.71-3.32,4.71c-2.21,0-3.32-1.57-3.32-4.71v-20.42    c0-3.14,1.11-4.71,3.32-4.71c2.21,0,3.32,1.57,3.32,4.71v6.87h12.22v-6.87c0-3.14,1.1-4.71,3.32-4.71c2.21,0,3.31,1.57,3.31,4.71    v20.42c0,3.14-1.11,4.71-3.31,4.71c-2.21,0-3.32-1.57-3.32-4.71v-7.43H441.27z"/>
		<path class="st70" d="M478.09,132.74c-4.39,0-7.9-1.46-10.5-4.39c-2.5-2.8-3.76-6.42-3.76-10.86c0-4.34,1.29-7.96,3.87-10.86    c2.66-3.01,6.15-4.51,10.46-4.51c1.54,0,3.01,0.21,4.39,0.64c1.73,0.53,2.97,1.29,3.71,2.28c0.43,0.56,0.64,1.13,0.64,1.72    c0,0.77-0.28,1.46-0.84,2.06c-0.56,0.6-1.22,0.9-2,0.9c-0.72,0-1.58-0.2-2.6-0.6s-2.1-0.6-3.27-0.6c-2.4,0-4.23,0.96-5.51,2.88    c-1.12,1.65-1.68,3.74-1.68,6.27c0,2.48,0.6,4.5,1.8,6.07c1.3,1.76,3.17,2.64,5.59,2.64c1.06,0,2.25-0.24,3.55-0.72    s2.18-0.72,2.64-0.72c0.75,0,1.38,0.3,1.9,0.9c0.52,0.6,0.78,1.27,0.78,2.02c0,0.64-0.21,1.25-0.64,1.84    C485.15,131.71,482.3,132.74,478.09,132.74z"/>
		<path class="st70" d="M494.79,109.05c-2.4,0-3.89-0.07-4.47-0.2c-1.79-0.37-2.68-1.33-2.68-2.88c0-2.08,1.57-3.11,4.71-3.11h11.54    c3.14,0,4.71,1.04,4.71,3.11c0,1.54-0.89,2.5-2.68,2.88c-0.59,0.13-2.08,0.2-4.47,0.2v18.58c0,3.14-1.11,4.7-3.32,4.7    c-2.24,0-3.35-1.57-3.35-4.7V109.05z"/>
		<path class="st70" d="M515.23,132.02c-1.68,0-2.85-0.29-3.51-0.86s-1-1.68-1-3.33v-20.29c0-1.73,0.33-2.94,1-3.63    s1.86-1.04,3.59-1.04h5.43c2.63,0,4.87,0.55,6.71,1.64c2.24,1.31,3.36,3.18,3.36,5.63c0,3.17-1.15,5.31-3.44,6.43v0.12    c1.71,0.53,2.93,1.31,3.67,2.34c0.75,1.03,1.12,2.43,1.12,4.21c0,2.96-1.02,5.2-3.07,6.75c-1.81,1.36-4.25,2.04-7.31,2.04H515.23z     M517.35,108.53v5.71h2.88c1.3,0,2.22-0.16,2.76-0.48c0.75-0.43,1.12-1.22,1.12-2.4c0-1.89-1.29-2.84-3.87-2.84H517.35z     M517.35,119.44v6.87h3.32c1.41,0,2.46-0.19,3.15-0.56c0.91-0.5,1.36-1.41,1.36-2.71c0-1.52-0.44-2.53-1.32-3.04    c-0.64-0.37-1.74-0.56-3.31-0.56H517.35z"/>
		<path class="st70" d="M534.56,117.46c0-4.36,1.22-7.91,3.67-10.65c2.53-2.87,5.95-4.31,10.26-4.31c4.34,0,7.77,1.42,10.3,4.27    c2.45,2.74,3.67,6.3,3.67,10.69c0,4.36-1.22,7.91-3.67,10.65c-2.55,2.82-5.99,4.23-10.3,4.23c-4.31,0-7.74-1.42-10.26-4.27    C535.79,125.36,534.56,121.82,534.56,117.46z M541.59,117.54c0,2.39,0.55,4.37,1.64,5.94c1.22,1.84,2.98,2.75,5.27,2.75    c2.29,0,4.06-0.9,5.31-2.71c1.09-1.59,1.64-3.59,1.64-5.98c0-2.47-0.52-4.5-1.56-6.1c-1.25-1.89-3.05-2.83-5.39-2.83    c-2.34,0-4.13,0.94-5.35,2.83C542.11,113.04,541.59,115.07,541.59,117.54z"/>
	</g>
		<g>
		<path class="st70" d="M250.49,167.22c0-6.74,1.89-12.22,5.67-16.45c3.91-4.44,9.19-6.65,15.85-6.65c6.7,0,12.01,2.2,15.91,6.59    c3.78,4.23,5.67,9.73,5.67,16.51c0,6.73-1.89,12.22-5.67,16.45c-3.95,4.35-9.25,6.53-15.91,6.53c-6.66,0-11.95-2.2-15.85-6.59    C252.38,179.42,250.49,173.96,250.49,167.22z M261.34,167.35c0,3.69,0.84,6.75,2.53,9.17c1.89,2.83,4.6,4.25,8.14,4.25    s6.27-1.39,8.2-4.18c1.69-2.46,2.53-5.54,2.53-9.23c0-3.82-0.8-6.96-2.41-9.42c-1.93-2.91-4.71-4.37-8.33-4.37    s-6.37,1.46-8.26,4.37C262.15,160.39,261.34,163.53,261.34,167.35z"/>
			<path class="st70" d="M309.14,159.11h6.91c4.89,0,8.73,1.33,11.51,3.98s4.16,6.43,4.16,11.32c0,4.85-1.54,8.66-4.63,11.41    c-2.96,2.59-6.91,3.88-11.84,3.88H306c-2.67,0-4.52-0.53-5.55-1.6c-1.03-1.07-1.54-2.94-1.54-5.61v-30.59    c0-2.67,0.51-4.54,1.54-5.61c1.03-1.07,2.88-1.6,5.55-1.6h16.04c4.89,0,7.34,1.6,7.34,4.81c0,3.17-2.45,4.75-7.34,4.75h-12.89    V159.11z M309.14,168.42v11.84h4.44c4.69,0,7.03-1.95,7.03-5.86c0-3.99-2.34-5.98-7.03-5.98H309.14z"/>
			<path class="st70" d="M380.57,181.13V151.4c0-4.85,1.71-7.28,5.12-7.28c3.41,0,5.12,2.43,5.12,7.28v29.73h0.8    c3.04,0,4.56,1.46,4.56,4.38v8.2c0,1.4-0.41,2.51-1.23,3.33c-0.82,0.82-1.93,1.23-3.33,1.23c-1.4,0-2.51-0.41-3.33-1.23    c-0.82-0.82-1.23-1.93-1.23-3.33v-4.01H344.3c-4.69,0-7.03-2.43-7.03-7.28V151.4c0-4.85,1.71-7.28,5.12-7.28    c3.41,0,5.12,2.43,5.12,7.28v29.73h11.96V151.4c0-2.22,0.23-3.84,0.68-4.87c0.7-1.6,2-2.41,3.89-2.41s3.19,0.8,3.88,2.41    c0.45,1.03,0.68,2.65,0.68,4.87v29.73H380.57z"/>
			<path class="st70" d="M419.37,144.68c4.85,0,7.28,1.6,7.28,4.81c0,3.17-2.43,4.75-7.28,4.75h-8.39v8.02h7.22    c4.85,0,7.28,1.57,7.28,4.72s-2.43,4.72-7.28,4.72h-7.22v8.57h8.7c4.85,0,7.28,1.57,7.28,4.72s-2.43,4.72-7.28,4.72h-11.97    c-2.59,0-4.4-0.44-5.43-1.33s-1.54-2.6-1.54-5.15v-31.33c0-2.67,0.51-4.54,1.54-5.61c1.03-1.07,2.88-1.6,5.55-1.6H419.37z"/>
			<path class="st70" d="M442.93,171.45v11.47c0,4.85-1.71,7.28-5.12,7.28c-3.41,0-5.12-2.42-5.12-7.27v-31.54    c0-4.84,1.71-7.27,5.12-7.27c3.41,0,5.12,2.43,5.12,7.28v10.61h18.87V151.4c0-4.85,1.71-7.28,5.12-7.28s5.12,2.42,5.12,7.27v31.54    c0,4.85-1.71,7.27-5.12,7.27s-5.12-2.43-5.12-7.28v-11.47H442.93z"/>
			<path class="st70" d="M509.17,162.26l-18.56,24.55c-1.73,2.26-3.7,3.39-5.92,3.39c-3.09,0-4.63-2.03-4.63-6.1v-32.71    c0-4.84,1.71-7.27,5.12-7.27c3.41,0,5.12,2.42,5.12,7.28v21.09l18.94-25.04c1.69-2.22,3.49-3.33,5.43-3.33    c3.17,0,4.75,2.3,4.75,6.9v31.91c0,4.85-1.71,7.27-5.12,7.27c-3.41,0-5.12-2.42-5.12-7.26V162.26z"/>
			<path class="st70" d="M559.81,151.88v31.05c0,4.85-1.71,7.27-5.12,7.27c-3.41,0-5.12-2.42-5.12-7.25v-11.07l-11.97,15    c-1.77,2.21-3.58,3.32-5.43,3.32c-1.36,0-2.52-0.42-3.48-1.26c-0.97-0.84-1.45-1.92-1.45-3.23c0-1.64,1.01-3.59,3.02-5.85    l8.08-8.99c-3.29-0.53-5.9-1.87-7.83-4c-1.93-2.13-2.9-4.84-2.9-8.13c0-4.15,1.47-7.53,4.41-10.13c2.94-2.61,7.18-3.91,12.74-3.91    h7.96c2.71,0,4.57,0.52,5.58,1.57C559.31,147.29,559.81,149.17,559.81,151.88z M549.58,165.09v-10.98h-4.87    c-4.28,0-6.42,1.79-6.42,5.37c0,3.74,2.18,5.61,6.54,5.61H549.58z"/>
	</g>
</g>
</svg>